<mxfile host="localhost" modified="2020-05-17T08:42:33.708Z" agent="5.0 (X11; Linux x86_64) AppleWebKit/537.36 (KHTML, like Gecko) code-oss/1.44.2 Chrome/78.0.3904.130 Electron/7.1.14 Safari/537.36" etag="R9YjDy4eQ5hAxqxYFFtH" version="13.0.9">
    <diagram id="6hGFLwfOUW9BJ-s0fimq" name="Page-1">
        <mxGraphModel dx="554" dy="459" grid="1" gridSize="10" guides="1" tooltips="1" connect="1" arrows="1" fold="1" page="1" pageScale="1" pageWidth="413" pageHeight="583" math="1" shadow="0">
            <root>
                <mxCell id="0"/>
                <mxCell id="1" parent="0"/>
                <mxCell id="2" value="S" style="text;html=1;strokeColor=none;fillColor=none;align=center;verticalAlign=middle;whiteSpace=wrap;rounded=0;fontSize=20;" vertex="1" parent="1">
                    <mxGeometry x="190" y="10" width="26" height="20" as="geometry"/>
                </mxCell>
                <mxCell id="3" value="S" style="text;html=1;strokeColor=none;fillColor=none;align=center;verticalAlign=middle;whiteSpace=wrap;rounded=0;fontSize=20;" vertex="1" parent="1">
                    <mxGeometry x="75" y="170" width="40" height="20" as="geometry"/>
                </mxCell>
                <mxCell id="4" value="[" style="text;html=1;strokeColor=none;fillColor=none;align=center;verticalAlign=middle;whiteSpace=wrap;rounded=0;fontSize=20;" vertex="1" parent="1">
                    <mxGeometry y="170" width="40" height="20" as="geometry"/>
                </mxCell>
                <mxCell id="5" value="]" style="text;html=1;strokeColor=none;fillColor=none;align=center;verticalAlign=middle;whiteSpace=wrap;rounded=0;fontSize=20;" vertex="1" parent="1">
                    <mxGeometry x="150" y="170" width="40" height="20" as="geometry"/>
                </mxCell>
                <mxCell id="6" value="S" style="text;html=1;strokeColor=none;fillColor=none;align=center;verticalAlign=middle;whiteSpace=wrap;rounded=0;fontSize=20;" vertex="1" parent="1">
                    <mxGeometry x="75" y="90" width="40" height="20" as="geometry"/>
                </mxCell>
                <mxCell id="7" value="S" style="text;html=1;strokeColor=none;fillColor=none;align=center;verticalAlign=middle;whiteSpace=wrap;rounded=0;fontSize=20;" vertex="1" parent="1">
                    <mxGeometry x="299" y="90" width="40" height="20" as="geometry"/>
                </mxCell>
                <mxCell id="8" value="" style="endArrow=classic;html=1;fontSize=20;entryX=0.75;entryY=0;entryDx=0;entryDy=0;" edge="1" parent="1" source="2" target="6">
                    <mxGeometry width="50" height="50" relative="1" as="geometry">
                        <mxPoint x="189" y="30" as="sourcePoint"/>
                        <mxPoint x="309" y="300" as="targetPoint"/>
                    </mxGeometry>
                </mxCell>
                <mxCell id="10" value="" style="endArrow=classic;html=1;fontSize=20;entryX=0.25;entryY=0;entryDx=0;entryDy=0;" edge="1" parent="1" source="2" target="7">
                    <mxGeometry width="50" height="50" relative="1" as="geometry">
                        <mxPoint x="206.5" y="40" as="sourcePoint"/>
                        <mxPoint x="159" y="100" as="targetPoint"/>
                    </mxGeometry>
                </mxCell>
                <mxCell id="11" value="" style="endArrow=classic;html=1;fontSize=20;" edge="1" parent="1" source="6" target="3">
                    <mxGeometry width="50" height="50" relative="1" as="geometry">
                        <mxPoint x="215" y="350" as="sourcePoint"/>
                        <mxPoint x="265" y="300" as="targetPoint"/>
                    </mxGeometry>
                </mxCell>
                <mxCell id="12" value="" style="endArrow=classic;html=1;fontSize=20;" edge="1" parent="1" source="6" target="4">
                    <mxGeometry width="50" height="50" relative="1" as="geometry">
                        <mxPoint x="215" y="350" as="sourcePoint"/>
                        <mxPoint x="265" y="300" as="targetPoint"/>
                    </mxGeometry>
                </mxCell>
                <mxCell id="13" value="" style="endArrow=classic;html=1;fontSize=20;" edge="1" parent="1" source="6" target="5">
                    <mxGeometry width="50" height="50" relative="1" as="geometry">
                        <mxPoint x="215" y="350" as="sourcePoint"/>
                        <mxPoint x="150" y="170" as="targetPoint"/>
                    </mxGeometry>
                </mxCell>
                <mxCell id="20" value="S" style="text;html=1;strokeColor=none;fillColor=none;align=center;verticalAlign=middle;whiteSpace=wrap;rounded=0;fontSize=20;" vertex="1" parent="1">
                    <mxGeometry x="75" y="260" width="40" height="20" as="geometry"/>
                </mxCell>
                <mxCell id="21" value="(" style="text;html=1;strokeColor=none;fillColor=none;align=center;verticalAlign=middle;whiteSpace=wrap;rounded=0;fontSize=20;" vertex="1" parent="1">
                    <mxGeometry y="260" width="40" height="20" as="geometry"/>
                </mxCell>
                <mxCell id="22" value=")" style="text;html=1;strokeColor=none;fillColor=none;align=center;verticalAlign=middle;whiteSpace=wrap;rounded=0;fontSize=20;" vertex="1" parent="1">
                    <mxGeometry x="150" y="260" width="40" height="20" as="geometry"/>
                </mxCell>
                <mxCell id="23" value="" style="endArrow=classic;html=1;fontSize=20;" edge="1" parent="1" target="20" source="3">
                    <mxGeometry width="50" height="50" relative="1" as="geometry">
                        <mxPoint x="94" y="200" as="sourcePoint"/>
                        <mxPoint x="264" y="390" as="targetPoint"/>
                    </mxGeometry>
                </mxCell>
                <mxCell id="24" value="" style="endArrow=classic;html=1;fontSize=20;" edge="1" parent="1" target="21" source="3">
                    <mxGeometry width="50" height="50" relative="1" as="geometry">
                        <mxPoint x="84" y="200" as="sourcePoint"/>
                        <mxPoint x="264" y="390" as="targetPoint"/>
                    </mxGeometry>
                </mxCell>
                <mxCell id="25" value="" style="endArrow=classic;html=1;fontSize=20;" edge="1" parent="1" target="22" source="3">
                    <mxGeometry width="50" height="50" relative="1" as="geometry">
                        <mxPoint x="104" y="200" as="sourcePoint"/>
                        <mxPoint x="149" y="260" as="targetPoint"/>
                    </mxGeometry>
                </mxCell>
                <mxCell id="26" value="ε" style="text;html=1;strokeColor=none;fillColor=none;align=center;verticalAlign=middle;whiteSpace=wrap;rounded=0;fontSize=20;" vertex="1" parent="1">
                    <mxGeometry x="75" y="350" width="40" height="20" as="geometry"/>
                </mxCell>
                <mxCell id="29" value="" style="endArrow=classic;html=1;fontSize=20;" edge="1" parent="1" source="20" target="26">
                    <mxGeometry width="50" height="50" relative="1" as="geometry">
                        <mxPoint x="129" y="310" as="sourcePoint"/>
                        <mxPoint x="179" y="260" as="targetPoint"/>
                    </mxGeometry>
                </mxCell>
                <mxCell id="30" value="S" style="text;html=1;strokeColor=none;fillColor=none;align=center;verticalAlign=middle;whiteSpace=wrap;rounded=0;fontSize=20;" vertex="1" parent="1">
                    <mxGeometry x="299" y="170" width="40" height="20" as="geometry"/>
                </mxCell>
                <mxCell id="31" value="(" style="text;html=1;strokeColor=none;fillColor=none;align=center;verticalAlign=middle;whiteSpace=wrap;rounded=0;fontSize=20;" vertex="1" parent="1">
                    <mxGeometry x="224" y="170" width="40" height="20" as="geometry"/>
                </mxCell>
                <mxCell id="32" value=")" style="text;html=1;strokeColor=none;fillColor=none;align=center;verticalAlign=middle;whiteSpace=wrap;rounded=0;fontSize=20;" vertex="1" parent="1">
                    <mxGeometry x="374" y="170" width="40" height="20" as="geometry"/>
                </mxCell>
                <mxCell id="33" value="" style="endArrow=classic;html=1;fontSize=20;" edge="1" parent="1" source="7" target="31">
                    <mxGeometry width="50" height="50" relative="1" as="geometry">
                        <mxPoint x="289" y="170" as="sourcePoint"/>
                        <mxPoint x="339" y="120" as="targetPoint"/>
                    </mxGeometry>
                </mxCell>
                <mxCell id="34" value="" style="endArrow=classic;html=1;fontSize=20;" edge="1" parent="1" source="7" target="30">
                    <mxGeometry width="50" height="50" relative="1" as="geometry">
                        <mxPoint x="319" y="120" as="sourcePoint"/>
                        <mxPoint x="264" y="180" as="targetPoint"/>
                    </mxGeometry>
                </mxCell>
                <mxCell id="35" value="" style="endArrow=classic;html=1;fontSize=20;" edge="1" parent="1" source="7" target="32">
                    <mxGeometry width="50" height="50" relative="1" as="geometry">
                        <mxPoint x="329" y="120" as="sourcePoint"/>
                        <mxPoint x="329" y="180" as="targetPoint"/>
                    </mxGeometry>
                </mxCell>
                <mxCell id="39" value="ε" style="text;html=1;strokeColor=none;fillColor=none;align=center;verticalAlign=middle;whiteSpace=wrap;rounded=0;fontSize=20;" vertex="1" parent="1">
                    <mxGeometry x="299" y="260" width="40" height="20" as="geometry"/>
                </mxCell>
                <mxCell id="41" value="" style="endArrow=classic;html=1;fontSize=20;" edge="1" parent="1" source="30" target="39">
                    <mxGeometry width="50" height="50" relative="1" as="geometry">
                        <mxPoint x="289" y="230" as="sourcePoint"/>
                        <mxPoint x="339" y="240" as="targetPoint"/>
                    </mxGeometry>
                </mxCell>
            </root>
        </mxGraphModel>
    </diagram>
</mxfile>